{
    "asset" : {
        "generator" : "Khronos glTF Blender I/O v3.4.50",
        "version" : "2.0"
    },
    "scene" : 0,
    "scenes" : [
        {
            "name" : "Scene",
            "nodes" : [
                0
            ]
        }
    ],
    "nodes" : [
        {
            "mesh" : 0,
            "name" : "barrel_large_decorated"
        }
    ],
    "materials" : [
        {
            "name" : "texture",
            "pbrMetallicRoughness" : {
                "baseColorTexture" : {
                    "index" : 0
                },
                "metallicFactor" : 0,
                "roughnessFactor" : 0.44999998807907104
            }
        }
    ],
    "meshes" : [
        {
            "name" : "barrel_large_decorated",
            "primitives" : [
                {
                    "attributes" : {
                        "POSITION" : 0,
                        "TEXCOORD_0" : 1,
                        "NORMAL" : 2
                    },
                    "indices" : 3,
                    "material" : 0
                }
            ]
        }
    ],
    "textures" : [
        {
            "sampler" : 0,
            "source" : 0
        }
    ],
    "images" : [
        {
            "mimeType" : "image/png",
            "name" : "dungeon_texture",
            "uri" : "dungeon_texture.png"
        }
    ],
    "accessors" : [
        {
            "bufferView" : 0,
            "componentType" : 5126,
            "count" : 1403,
            "max" : [
                1.0192621946334839,
                2.554462432861328,
                0.9367502331733704
            ],
            "min" : [
                -0.9186948537826538,
                -0.001990780234336853,
                -0.9186941385269165
            ],
            "type" : "VEC3"
        },
        {
            "bufferView" : 1,
            "componentType" : 5126,
            "count" : 1403,
            "type" : "VEC2"
        },
        {
            "bufferView" : 2,
            "componentType" : 5126,
            "count" : 1403,
            "type" : "VEC3"
        },
        {
            "bufferView" : 3,
            "componentType" : 5123,
            "count" : 3141,
            "type" : "SCALAR"
        }
    ],
    "bufferViews" : [
        {
            "buffer" : 0,
            "byteLength" : 16836,
            "byteOffset" : 0,
            "target" : 34962
        },
        {
            "buffer" : 0,
            "byteLength" : 11224,
            "byteOffset" : 16836,
            "target" : 34962
        },
        {
            "buffer" : 0,
            "byteLength" : 16836,
            "byteOffset" : 28060,
            "target" : 34962
        },
        {
            "buffer" : 0,
            "byteLength" : 6282,
            "byteOffset" : 44896,
            "target" : 34963
        }
    ],
    "samplers" : [
        {
            "magFilter" : 9729,
            "minFilter" : 9987
        }
    ],
    "buffers" : [
        {
            "byteLength" : 51180,
            "uri" : "barrel_large_decorated.bin"
        }
    ]
}
