{
    "asset" : {
        "generator" : "Khronos glTF Blender I/O v3.4.50",
        "version" : "2.0"
    },
    "scene" : 0,
    "scenes" : [
        {
            "name" : "Scene",
            "nodes" : [
                1
            ]
        }
    ],
    "nodes" : [
        {
            "mesh" : 0,
            "name" : "chest_gold_lid",
            "translation" : [
                0,
                0.5,
                -0.5648832321166992
            ]
        },
        {
            "children" : [
                0
            ],
            "mesh" : 1,
            "name" : "chest_gold"
        }
    ],
    "materials" : [
        {
            "name" : "texture",
            "pbrMetallicRoughness" : {
                "baseColorTexture" : {
                    "index" : 0
                },
                "metallicFactor" : 0,
                "roughnessFactor" : 0.44999998807907104
            }
        }
    ],
    "meshes" : [
        {
            "name" : "chest_gold_lid",
            "primitives" : [
                {
                    "attributes" : {
                        "POSITION" : 0,
                        "TEXCOORD_0" : 1,
                        "NORMAL" : 2
                    },
                    "indices" : 3,
                    "material" : 0
                }
            ]
        },
        {
            "name" : "chest_gold",
            "primitives" : [
                {
                    "attributes" : {
                        "POSITION" : 4,
                        "TEXCOORD_0" : 5,
                        "NORMAL" : 6
                    },
                    "indices" : 7,
                    "material" : 0
                }
            ]
        }
    ],
    "textures" : [
        {
            "sampler" : 0,
            "source" : 0
        }
    ],
    "images" : [
        {
            "mimeType" : "image/png",
            "name" : "dungeon_texture",
            "uri" : "dungeon_texture.png"
        }
    ],
    "accessors" : [
        {
            "bufferView" : 0,
            "componentType" : 5126,
            "count" : 654,
            "max" : [
                0.8500000238418579,
                0.800000011920929,
                1.3106862306594849
            ],
            "min" : [
                -0.8500000238418579,
                -0.1650022566318512,
                -0.1351175606250763
            ],
            "type" : "VEC3"
        },
        {
            "bufferView" : 1,
            "componentType" : 5126,
            "count" : 654,
            "type" : "VEC2"
        },
        {
            "bufferView" : 2,
            "componentType" : 5126,
            "count" : 654,
            "type" : "VEC3"
        },
        {
            "bufferView" : 3,
            "componentType" : 5123,
            "count" : 1386,
            "type" : "SCALAR"
        },
        {
            "bufferView" : 4,
            "componentType" : 5126,
            "count" : 1571,
            "max" : [
                0.800000011920929,
                1.0406723022460938,
                0.6458025574684143
            ],
            "min" : [
                -0.800000011920929,
                -2.384185791015625e-07,
                -0.6000003814697266
            ],
            "type" : "VEC3"
        },
        {
            "bufferView" : 5,
            "componentType" : 5126,
            "count" : 1571,
            "type" : "VEC2"
        },
        {
            "bufferView" : 6,
            "componentType" : 5126,
            "count" : 1571,
            "type" : "VEC3"
        },
        {
            "bufferView" : 7,
            "componentType" : 5123,
            "count" : 3318,
            "type" : "SCALAR"
        }
    ],
    "bufferViews" : [
        {
            "buffer" : 0,
            "byteLength" : 7848,
            "byteOffset" : 0,
            "target" : 34962
        },
        {
            "buffer" : 0,
            "byteLength" : 5232,
            "byteOffset" : 7848,
            "target" : 34962
        },
        {
            "buffer" : 0,
            "byteLength" : 7848,
            "byteOffset" : 13080,
            "target" : 34962
        },
        {
            "buffer" : 0,
            "byteLength" : 2772,
            "byteOffset" : 20928,
            "target" : 34963
        },
        {
            "buffer" : 0,
            "byteLength" : 18852,
            "byteOffset" : 23700,
            "target" : 34962
        },
        {
            "buffer" : 0,
            "byteLength" : 12568,
            "byteOffset" : 42552,
            "target" : 34962
        },
        {
            "buffer" : 0,
            "byteLength" : 18852,
            "byteOffset" : 55120,
            "target" : 34962
        },
        {
            "buffer" : 0,
            "byteLength" : 6636,
            "byteOffset" : 73972,
            "target" : 34963
        }
    ],
    "samplers" : [
        {
            "magFilter" : 9729,
            "minFilter" : 9987
        }
    ],
    "buffers" : [
        {
            "byteLength" : 80608,
            "uri" : "chest_gold.bin"
        }
    ]
}
