# Blender v3.4.1 OBJ File: 'Dungeon_Remastered_1.1_Export.blend'
# www.blender.org
mtllib barrier_corner.mtl
o barrier_corner
v 0.000000 0.900000 0.250000
v 0.000000 0.900000 -0.250000
v -2.000000 0.900000 -0.250000
v -2.000000 0.900000 0.250000
v 0.000000 0.300000 0.250000
v 0.000000 0.300000 -0.250000
v -2.000000 0.300000 0.250000
v -2.000000 0.300000 -0.250000
v 0.000000 0.000000 0.250000
v 0.000000 0.000000 -0.250000
v -2.000000 0.000000 -0.250000
v -2.000000 0.000000 0.250000
v 0.000000 1.100000 0.187500
v 0.000000 1.075000 0.250000
v 0.000000 1.075000 -0.250000
v 0.000000 1.100000 -0.187500
v -2.000000 1.075000 0.250000
v -2.000000 1.100000 0.187500
v -2.000000 1.100000 -0.187500
v -2.000000 1.075000 -0.250000
v -1.499997 0.300000 0.250000
v -1.499997 0.900000 0.250000
v -1.499997 0.900000 -0.250000
v -1.499997 0.300000 -0.250000
v -0.999997 0.900000 -0.250000
v -0.999997 0.300000 -0.250000
v -0.999997 0.900000 0.250000
v -0.999997 0.300000 0.250000
v -1.424806 0.400000 0.174809
v -1.424806 0.800000 0.174809
v -1.424806 0.800000 -0.174809
v -1.424806 0.400000 -0.174809
v -1.075188 0.800000 -0.174809
v -1.075188 0.400000 -0.174809
v -1.075188 0.800000 0.174809
v -1.075188 0.400000 0.174809
v 0.250000 0.900000 -0.000000
v -0.250000 0.900000 0.000000
v -0.250000 0.900000 2.000000
v 0.250000 0.900000 2.000000
v 0.250000 0.300000 -0.000000
v -0.250000 0.300000 0.000000
v 0.250000 0.300000 2.000000
v -0.250000 0.300000 2.000000
v 0.250000 0.000000 -0.000000
v -0.250000 0.000000 0.000000
v -0.250000 0.000000 2.000000
v 0.250000 0.000000 2.000000
v 0.187500 1.100000 -0.000000
v 0.250000 1.075000 -0.000000
v -0.250000 1.075000 0.000000
v -0.187500 1.100000 0.000000
v 0.250000 1.075000 2.000000
v 0.187500 1.100000 2.000000
v -0.187500 1.100000 2.000000
v -0.250000 1.075000 2.000000
v 0.250000 0.300000 1.499997
v 0.250000 0.900000 1.499997
v -0.250000 0.900000 1.499997
v -0.250000 0.300000 1.499997
v -0.250000 0.900000 0.999997
v -0.250000 0.300000 0.999997
v 0.250000 0.900000 0.999997
v 0.250000 0.300000 0.999997
v 0.174809 0.400000 1.424806
v 0.174809 0.800000 1.424806
v -0.174809 0.800000 1.424806
v -0.174809 0.400000 1.424806
v -0.174809 0.800000 1.075188
v -0.174809 0.400000 1.075188
v 0.174809 0.800000 1.075188
v 0.174809 0.400000 1.075188
v -0.100000 0.000000 0.594975
v -0.100000 1.200000 0.594975
v -0.594975 0.000000 0.100000
v -0.594975 1.200000 0.100000
v 0.394975 0.000000 0.100000
v 0.394975 1.200000 0.100000
v -0.100000 0.000000 -0.394975
v -0.100000 1.200000 -0.394975
v -0.100000 1.400000 0.100000
v -0.100000 0.300000 0.594975
v -0.100000 0.900000 0.594975
v -0.594975 0.900000 0.100000
v -0.594975 0.300000 0.100000
v -0.100000 0.900000 -0.394975
v -0.100000 0.300000 -0.394975
v 0.394975 0.900000 0.100000
v 0.394975 0.300000 0.100000
v -0.100000 0.400000 0.488638
v -0.100000 0.800000 0.488638
v -0.488638 0.800000 0.100000
v -0.488638 0.400000 0.100000
v -0.100000 0.800000 -0.288638
v -0.100000 0.400000 -0.288638
v 0.288638 0.800000 0.100000
v 0.288638 0.400000 0.100000
vt 0.164673 0.833788
vt 0.211016 0.833788
vt 0.211016 0.833788
vt 0.164673 0.833788
vt 0.211016 0.818163
vt 0.211016 0.818163
vt 0.211016 0.818163
vt 0.211016 0.818163
vt 0.211016 0.833788
vt 0.164673 0.833788
vt 0.164673 0.833788
vt 0.211016 0.833788
vt 0.164673 0.818163
vt 0.164673 0.818163
vt 0.164673 0.818163
vt 0.164673 0.818163
vt 0.211016 0.849058
vt 0.164673 0.849058
vt 0.211016 0.802538
vt 0.211016 0.833433
vt 0.211016 0.833433
vt 0.211016 0.802538
vt 0.164673 0.849058
vt 0.211016 0.849058
vt 0.164673 0.802538
vt 0.164673 0.833433
vt 0.164673 0.833433
vt 0.164673 0.802538
vt 0.164673 0.817808
vt 0.164673 0.817808
vt 0.164673 0.817808
vt 0.164673 0.817808
vt 0.164673 0.833433
vt 0.211016 0.833433
vt 0.211016 0.817808
vt 0.211016 0.817808
vt 0.211016 0.817808
vt 0.211016 0.817808
vt 0.211016 0.833433
vt 0.164673 0.833433
vt 0.164673 0.833433
vt 0.164673 0.864329
vt 0.164673 0.864329
vt 0.164673 0.833433
vt 0.164673 0.849058
vt 0.164673 0.879954
vt 0.211016 0.879954
vt 0.211016 0.849058
vt 0.211016 0.833433
vt 0.211016 0.864329
vt 0.211016 0.864329
vt 0.211016 0.833433
vt 0.211016 0.849058
vt 0.211016 0.879954
vt 0.164673 0.879954
vt 0.164673 0.849058
vt 0.211016 0.895579
vt 0.164673 0.895579
vt 0.199429 0.945366
vt 0.199429 0.929741
vt 0.176258 0.929741
vt 0.164673 0.895579
vt 0.211016 0.895579
vt 0.176258 0.945366
vt 0.211016 0.787267
vt 0.211016 0.818163
vt 0.164673 0.818163
vt 0.164673 0.787267
vt 0.164673 0.833788
vt 0.211016 0.833788
vt 0.211016 0.833788
vt 0.164673 0.833788
vt 0.211016 0.771642
vt 0.211016 0.802538
vt 0.211016 0.802538
vt 0.211016 0.771642
vt 0.211016 0.818163
vt 0.211016 0.818163
vt 0.211016 0.818163
vt 0.164673 0.787267
vt 0.164673 0.818163
vt 0.211016 0.787267
vt 0.211016 0.833788
vt 0.164673 0.833788
vt 0.164673 0.833788
vt 0.211016 0.833788
vt 0.164673 0.771642
vt 0.164673 0.802538
vt 0.164673 0.802538
vt 0.164673 0.771642
vt 0.164673 0.818163
vt 0.164673 0.818163
vt 0.211016 0.849058
vt 0.164673 0.849058
vt 0.211016 0.802538
vt 0.211016 0.833433
vt 0.211016 0.833433
vt 0.211016 0.802538
vt 0.164673 0.849058
vt 0.211016 0.849058
vt 0.164673 0.802538
vt 0.164673 0.833433
vt 0.164673 0.833433
vt 0.164673 0.802538
vt 0.164673 0.817808
vt 0.164673 0.817808
vt 0.164673 0.817808
vt 0.164673 0.817808
vt 0.211016 0.817808
vt 0.211016 0.817808
vt 0.211016 0.817808
vt 0.211016 0.817808
vt 0.195770 0.861218
vt 0.195770 0.861218
vt 0.204371 0.861218
vt 0.204371 0.861218
vt 0.204371 0.843366
vt 0.195770 0.843366
vt 0.195770 0.843366
vt 0.204371 0.843366
vt 0.204371 0.861218
vt 0.204371 0.861218
vt 0.195770 0.861218
vt 0.195770 0.861218
vt 0.204371 0.825513
vt 0.195770 0.825513
vt 0.195770 0.825513
vt 0.204371 0.825513
vt 0.195770 0.825513
vt 0.195770 0.825513
vt 0.204371 0.825513
vt 0.204371 0.825513
vt 0.204371 0.861218
vt 0.204371 0.861218
vt 0.195770 0.861218
vt 0.195770 0.861218
vt 0.195770 0.914774
vt 0.204371 0.914774
vt 0.204371 0.914774
vt 0.195770 0.914774
vt 0.195770 0.914774
vt 0.204371 0.914774
vt 0.204371 0.914774
vt 0.195770 0.914774
vt 0.204371 0.896922
vt 0.204371 0.896922
vt 0.195770 0.896922
vt 0.195770 0.896922
vt 0.164673 0.833788
vt 0.211016 0.833788
vt 0.211016 0.833788
vt 0.164673 0.833788
vt 0.211016 0.818163
vt 0.211016 0.818163
vt 0.211016 0.818163
vt 0.211016 0.818163
vt 0.211016 0.833788
vt 0.164673 0.833788
vt 0.164673 0.833788
vt 0.211016 0.833788
vt 0.164673 0.818163
vt 0.164673 0.818163
vt 0.164673 0.818163
vt 0.164673 0.818163
vt 0.211016 0.849058
vt 0.164673 0.849058
vt 0.211016 0.802538
vt 0.211016 0.833433
vt 0.211016 0.833433
vt 0.211016 0.802538
vt 0.164673 0.849058
vt 0.211016 0.849058
vt 0.164673 0.802538
vt 0.164673 0.833433
vt 0.164673 0.833433
vt 0.164673 0.802538
vt 0.164673 0.817808
vt 0.164673 0.817808
vt 0.164673 0.817808
vt 0.164673 0.817808
vt 0.164673 0.833433
vt 0.211016 0.833433
vt 0.211016 0.817808
vt 0.211016 0.817808
vt 0.211016 0.817808
vt 0.211016 0.817808
vt 0.211016 0.833433
vt 0.164673 0.833433
vt 0.195770 0.861218
vt 0.195770 0.861218
vt 0.204371 0.861218
vt 0.204371 0.861218
vt 0.204371 0.843366
vt 0.195770 0.843366
vt 0.195770 0.843366
vt 0.204371 0.843366
vt 0.204371 0.861218
vt 0.204371 0.861218
vt 0.195770 0.861218
vt 0.195770 0.861218
vt 0.204371 0.825513
vt 0.195770 0.825513
vt 0.195770 0.825513
vt 0.204371 0.825513
vt 0.195770 0.825513
vt 0.195770 0.825513
vt 0.204371 0.825513
vt 0.204371 0.825513
vt 0.204371 0.861218
vt 0.204371 0.861218
vt 0.195770 0.861218
vt 0.195770 0.861218
vt 0.195770 0.914774
vt 0.204371 0.914774
vt 0.204371 0.914774
vt 0.195770 0.914774
vt 0.195770 0.914774
vt 0.204371 0.914774
vt 0.204371 0.914774
vt 0.195770 0.914774
vt 0.204371 0.896922
vt 0.204371 0.896922
vt 0.195770 0.896922
vt 0.195770 0.896922
vn 0.7993 0.6010 -0.0000
vn 0.0000 0.6010 -0.7993
vn -0.7993 0.6010 0.0000
vn -0.0000 0.6010 0.7993
vn 1.0000 0.0000 -0.0000
vn 0.0000 0.0000 -1.0000
vn -1.0000 0.0000 0.0000
vn 0.0000 0.0000 1.0000
vn 0.0000 -0.6010 0.7993
vn -0.7993 -0.6010 0.0000
vn 0.0000 -0.6010 -0.7993
vn 0.7993 -0.6010 -0.0000
vn -0.7071 0.0000 0.7071
vn -0.7071 0.0000 -0.7071
vn 0.7071 0.0000 -0.7071
vn 0.7071 0.0000 0.7071
vn -0.3508 0.8682 -0.3508
vn 0.3508 0.8682 -0.3508
vn -0.3508 0.8682 0.3508
vn 0.3508 0.8682 0.3508
vn 0.5652 0.6010 0.5652
vn 0.5652 0.6010 -0.5652
vn -0.5652 0.6010 -0.5652
vn -0.5652 0.6010 0.5652
vn -0.5652 -0.6010 0.5652
vn -0.5652 -0.6010 -0.5652
vn 0.5652 -0.6010 -0.5652
vn 0.5652 -0.6010 0.5652
vn 0.0000 -1.0000 0.0000
vn 0.0000 1.0000 0.0000
vn 0.0000 0.9285 0.3714
vn 0.0000 0.9285 -0.3714
vn 0.0000 0.3629 0.9318
vn 0.9318 0.3629 0.0000
vn 0.0000 0.3629 -0.9318
vn -0.9318 0.3629 -0.0000
vn 0.0000 -0.3629 0.9318
vn 0.9318 -0.3629 0.0000
vn 0.0000 -0.3629 -0.9318
vn -0.9318 -0.3629 0.0000
vn 0.3714 0.9285 -0.0000
vn -0.3714 0.9285 0.0000
usemtl texture
s off
f 57/1/1 64/2/1 72/3/1 65/4/1
f 64/5/2 62/6/2 70/7/2 72/8/2
f 62/9/3 60/10/3 68/11/3 70/12/3
f 60/13/4 57/14/4 65/15/4 68/16/4
f 72/8/5 71/17/5 66/18/5 65/15/5
f 70/19/6 69/20/6 71/21/6 72/22/6
f 68/16/7 67/23/7 69/24/7 70/7/7
f 65/25/8 66/26/8 67/27/8 68/28/8
f 58/29/9 59/30/9 67/31/9 66/32/9
f 59/33/10 61/34/10 69/20/10 67/27/10
f 61/35/11 63/36/11 71/37/11 69/38/11
f 63/39/12 58/40/12 66/26/12 71/21/12
f 83/41/13 74/42/13 76/43/13 84/44/13
f 84/45/14 76/46/14 80/47/14 86/48/14
f 86/49/15 80/50/15 78/51/15 88/52/15
f 88/53/16 78/54/16 74/55/16 83/56/16
f 80/57/17 76/58/17 81/59/17
f 78/54/18 80/47/18 81/60/18
f 76/46/19 74/55/19 81/61/19
f 74/62/20 78/63/20 81/64/20
f 77/65/16 89/66/16 82/67/16 73/68/16
f 82/69/21 89/70/21 97/71/21 90/72/21
f 79/73/15 87/74/15 89/75/15 77/76/15
f 89/66/22 87/77/22 95/78/22 97/79/22
f 75/80/14 85/81/14 87/77/14 79/82/14
f 87/83/23 85/84/23 93/85/23 95/86/23
f 73/87/13 82/88/13 85/89/13 75/90/13
f 85/81/24 82/67/24 90/91/24 93/92/24
f 97/79/16 96/93/16 91/94/16 90/91/16
f 95/95/15 94/96/15 96/97/15 97/98/15
f 93/92/14 92/99/14 94/100/14 95/78/14
f 90/101/13 91/102/13 92/103/13 93/104/13
f 83/105/25 84/106/25 92/107/25 91/108/25
f 84/44/26 86/49/26 94/96/26 92/103/26
f 86/109/27 88/110/27 96/111/27 94/112/27
f 88/52/28 83/41/28 91/102/28 96/97/28
s 1
f 17/113/8 4/114/8 1/115/8 14/116/8
f 1/117/29 4/118/29 3/119/29 2/120/29
f 15/121/6 2/122/6 3/123/6 20/124/6
f 10/125/6 11/126/6 8/127/6 6/128/6
f 7/129/8 12/130/8 9/131/8 5/132/8
f 5/133/30 6/134/30 8/135/30 7/136/30
f 17/137/31 14/138/31 13/139/31 18/140/31
f 19/141/32 16/142/32 15/143/32 20/144/32
f 13/145/30 16/146/30 19/147/30 18/148/30
f 21/149/4 28/150/4 36/151/33 29/152/33
f 28/153/1 26/154/1 34/155/34 36/156/34
f 26/157/2 24/158/2 32/159/35 34/160/35
f 24/161/3 21/162/3 29/163/36 32/164/36
f 36/156/33 35/165/37 30/166/37 29/163/33
f 34/167/34 33/168/38 35/169/38 36/170/34
f 32/164/35 31/171/39 33/172/39 34/155/35
f 29/173/36 30/174/40 31/175/40 32/176/36
f 22/177/10 23/178/10 31/179/40 30/180/40
f 23/181/11 25/182/11 33/168/39 31/175/39
f 25/183/12 27/184/12 35/185/38 33/186/38
f 27/187/9 22/188/9 30/174/37 35/169/37
f 53/189/5 40/190/5 37/191/5 50/192/5
f 37/193/29 40/194/29 39/195/29 38/196/29
f 51/197/7 38/198/7 39/199/7 56/200/7
f 46/201/7 47/202/7 44/203/7 42/204/7
f 43/205/5 48/206/5 45/207/5 41/208/5
f 41/209/30 42/210/30 44/211/30 43/212/30
f 53/213/41 50/214/41 49/215/41 54/216/41
f 55/217/42 52/218/42 51/219/42 56/220/42
f 49/221/30 52/222/30 55/223/30 54/224/30
