# Blender v3.4.1 OBJ File: 'Dungeon_Remastered_1.1_Export.blend'
# www.blender.org
mtllib ceiling_tile.mtl
o ceiling_tile
v 2.000000 0.099999 2.000000
v 2.000000 0.100000 -2.000000
v -2.000000 0.100001 -2.000000
v -2.000000 0.100000 2.000000
v 2.000000 -0.050000 -2.000000
v 2.000000 -0.050001 2.000000
v -2.000000 -0.050000 2.000000
v -2.000000 -0.049999 -2.000000
v 2.000000 -0.050000 0.800000
v 2.000000 -0.050001 1.200000
v -2.000000 -0.050000 1.200000
v -2.000000 -0.049999 0.800000
v 2.000000 -0.250000 0.853022
v 2.000000 -0.250001 1.146977
v -2.000000 -0.250000 1.146977
v -2.000000 -0.249999 0.853022
v 2.000000 -0.050000 -1.200000
v 2.000000 -0.050001 -0.800000
v -2.000000 -0.050000 -0.800000
v -2.000000 -0.049999 -1.200000
v 2.000000 -0.250000 -1.146978
v 2.000000 -0.250001 -0.853023
v -2.000000 -0.250000 -0.853023
v -2.000000 -0.249999 -1.146978
v 2.000000 0.099999 0.000000
v -2.000000 0.100001 0.000000
v 2.000000 -0.050001 0.000000
v -2.000000 -0.049999 0.000000
v -2.000000 0.100001 -1.000000
v -2.000000 -0.049999 -1.000000
v 2.000000 0.100000 -1.000000
v 2.000000 -0.050000 -1.000000
v 2.000000 0.099999 1.000000
v 2.000000 -0.050001 1.000000
v -2.000000 0.100000 1.000000
v -2.000000 -0.050000 1.000000
vt 0.904551 0.801412
vt 0.957118 0.801412
vt 0.957118 0.801412
vt 0.904551 0.801412
vt 0.905040 0.850728
vt 0.905040 0.850728
vt 0.957606 0.819478
vt 0.957606 0.819478
vt 0.904551 0.801412
vt 0.904551 0.801412
vt 0.957118 0.801412
vt 0.957118 0.801412
vt 0.904551 0.801412
vt 0.904551 0.801412
vt 0.957118 0.801412
vt 0.957118 0.801412
vt 0.904551 0.801412
vt 0.264415 0.819478
vt 0.316981 0.819478
vt 0.316981 0.819478
vt 0.264415 0.819478
vt 0.264415 0.850728
vt 0.264415 0.850728
vt 0.316981 0.850728
vt 0.316981 0.850728
vt 0.316981 0.819478
vt 0.316981 0.819478
vt 0.264415 0.819478
vt 0.264415 0.819478
vt 0.264415 0.819478
vt 0.316981 0.819478
vt 0.316981 0.819478
vt 0.264415 0.819478
vt 0.264415 0.850728
vt 0.264415 0.850728
vt 0.316981 0.850728
vt 0.316981 0.850728
vt 0.316981 0.819478
vt 0.316981 0.819478
vt 0.264415 0.819478
vt 0.264415 0.819478
vt 0.957118 0.801412
vt 0.957118 0.801412
vt 0.957118 0.801412
vt 0.957118 0.801412
vt 0.904551 0.801412
vt 0.904551 0.801412
vt 0.904551 0.801412
vt 0.905040 0.803853
vt 0.905040 0.803853
vt 0.957606 0.835103
vt 0.957606 0.835103
vt 0.905040 0.881978
vt 0.905040 0.881978
vt 0.957606 0.835103
vt 0.905040 0.835103
vt 0.905040 0.835103
vt 0.957606 0.881978
vt 0.957606 0.881978
vn 0.0000 1.0000 0.0000
vn -0.0000 -1.0000 -0.0000
vn 0.0000 0.0000 -1.0000
vn 1.0000 0.0000 0.0000
vn -1.0000 0.0000 0.0000
vn 0.0000 0.0000 1.0000
vn -0.0000 -0.2563 0.9666
vn -0.0000 -0.2563 -0.9666
usemtl texture
s 1
f 33/1/1 35/2/1 4/3/1 1/4/1
f 34/5/2 6/6/2 7/7/2 36/8/2
f 2/9/3 5/10/3 8/11/3 3/12/3
f 31/13/4 32/14/4 5/10/4 2/9/4
f 35/2/5 36/15/5 7/16/5 4/3/5
f 4/3/6 7/16/6 6/17/6 1/4/6
f 9/18/1 12/19/1 11/20/1 10/21/1
f 13/22/2 14/23/2 15/24/2 16/25/2
f 11/20/5 12/19/5 16/26/5 15/27/5
f 10/21/7 11/20/7 15/27/7 14/28/7
f 12/19/8 9/18/8 13/29/8 16/26/8
f 9/18/4 10/21/4 14/28/4 13/29/4
f 17/30/1 20/31/1 19/32/1 18/33/1
f 21/34/2 22/35/2 23/36/2 24/37/2
f 19/32/5 20/31/5 24/38/5 23/39/5
f 18/33/7 19/32/7 23/39/7 22/40/7
f 20/31/8 17/30/8 21/41/8 24/38/8
f 17/30/4 18/33/4 22/40/4 21/41/4
f 29/42/5 30/43/5 28/44/5 26/45/5
f 33/1/4 34/46/4 27/47/4 25/48/4
f 32/49/2 27/50/2 28/51/2 30/52/2
f 31/13/1 29/42/1 26/45/1 25/48/1
f 2/9/1 3/12/1 29/42/1 31/13/1
f 5/53/2 32/54/2 30/52/2 8/55/2
f 3/12/5 8/11/5 30/43/5 29/42/5
f 25/48/4 27/47/4 32/14/4 31/13/4
f 1/4/4 6/17/4 34/46/4 33/1/4
f 26/45/5 28/44/5 36/15/5 35/2/5
f 27/56/2 34/57/2 36/58/2 28/59/2
f 25/48/1 26/45/1 35/2/1 33/1/1
