# Blender v3.4.1 OBJ File: 'Dungeon_Remastered_1.1_Export.blend'
# www.blender.org
mtllib stairs_modular_right.mtl
o stairs_modular_right
v 1.750000 0.000000 4.000000
v 1.750000 4.000000 0.000000
v 1.750000 1.000000 3.000000
v 1.750000 1.500000 2.500000
v 1.750000 2.000000 2.000000
v 1.750000 2.500000 1.500000
v 1.750000 3.000000 1.000000
v 1.750000 3.500000 0.500000
v 1.750000 3.900000 0.500000
v 1.750000 4.000000 0.400000
v 1.750000 0.400000 4.000000
v 1.750000 0.500000 3.900000
v 1.750000 0.900000 3.500000
v 1.750000 1.000000 3.400000
v 1.750000 1.400000 3.000000
v 1.750000 1.500000 2.900000
v 1.750000 1.900000 2.500000
v 1.750000 2.000000 2.400000
v 1.750000 2.400000 2.000000
v 1.750000 2.500000 1.900000
v 1.750000 2.900000 1.500000
v 1.750000 3.000000 1.400000
v 1.750000 3.400000 1.000000
v 1.750000 3.500000 0.900000
v 2.500000 0.250000 0.000000
v 2.500000 0.000000 0.000000
v 2.250000 0.500000 0.000000
v 2.500000 0.000000 1.100000
v 2.500000 0.000000 0.900000
v 2.429289 0.000000 1.000000
v 2.500000 0.000000 3.100000
v 2.500000 0.000000 2.900000
v 2.429289 0.000000 3.000000
v 2.500000 0.250000 0.900000
v 2.500000 0.250000 1.100000
v 2.429289 0.320711 1.000000
v 2.500000 0.250000 2.900000
v 2.500000 0.250000 3.100000
v 2.429289 0.320711 3.000000
v 2.250000 0.500000 4.000000
v 2.500000 0.250000 4.000000
v 2.500000 0.000000 4.000000
v 1.750000 0.500000 4.000000
v 1.750000 0.500000 3.500000
v 2.238803 2.640867 0.960613
v 2.238803 2.699834 1.019580
v 2.238803 2.699834 1.484502
v 2.238803 2.640867 1.543469
v 2.238803 2.454244 1.543469
v 2.238803 2.395278 1.484502
v 2.238803 2.395278 1.019580
v 2.238803 2.454244 0.960613
v 2.329804 2.445192 1.010528
v 2.329804 2.649919 1.010528
v 2.329804 2.445192 1.493554
v 2.329804 2.649919 1.493554
v 2.329804 1.561414 0.969968
v 2.329804 1.766141 0.969968
v 2.329804 1.561414 0.486941
v 2.329804 1.766141 0.486941
v 2.238803 1.757089 0.437026
v 2.238803 1.816056 0.495993
v 2.238803 1.816056 0.960916
v 2.238803 1.757089 1.019882
v 2.238803 1.570467 1.019882
v 2.238803 1.511500 0.960916
v 2.238803 1.511500 0.495993
v 2.238803 1.570467 0.437026
v 2.238803 1.511500 0.820905
v 2.329804 1.634740 0.824505
v 2.329804 1.561414 0.751180
v 2.265553 1.526173 0.821964
v 2.329804 1.561414 0.897831
v 2.238803 2.958415 0.591571
v 2.238803 3.017381 0.650537
v 2.238803 3.017381 1.115460
v 2.238803 2.958415 1.174427
v 2.238803 2.771792 1.174427
v 2.238803 2.712826 1.115460
v 2.238803 2.712826 0.650537
v 2.238803 2.771792 0.591571
v 2.329804 2.762740 0.641486
v 2.329804 2.967467 0.641486
v 2.329804 2.762740 1.124512
v 2.329804 2.967467 1.124512
v 2.238804 1.319182 2.262910
v 2.238804 1.378148 2.321876
v 2.238803 1.378148 2.786799
v 2.238803 1.319182 2.845765
v 2.238803 1.132559 2.845765
v 2.238803 1.073593 2.786799
v 2.238804 1.073593 2.321876
v 2.238804 1.132559 2.262910
v 2.329805 1.123507 2.312824
v 2.329805 1.328234 2.312824
v 2.329804 1.123507 2.795851
v 2.329804 1.328234 2.795851
v 2.238803 0.975887 1.885285
v 2.238803 1.034853 1.944252
v 2.238803 1.034853 2.409174
v 2.238803 0.975887 2.468141
v 2.238803 0.789264 2.468141
v 2.238803 0.730298 2.409174
v 2.238803 0.730298 1.944252
v 2.238803 0.789264 1.885285
v 2.329804 0.780212 1.935200
v 2.329804 0.984939 1.935200
v 2.329804 0.780212 2.418227
v 2.329804 0.984939 2.418227
v 2.238803 1.756500 1.062297
v 2.238803 1.815466 1.121264
v 2.238803 1.815466 1.586187
v 2.238803 1.756500 1.645153
v 2.238803 1.569877 1.645153
v 2.238803 1.510911 1.586187
v 2.238803 1.510911 1.121264
v 2.238803 1.569877 1.062297
v 2.329804 1.560825 1.112212
v 2.329804 1.765552 1.112212
v 2.329804 1.560825 1.595239
v 2.329804 1.765552 1.595239
v 2.238803 1.434661 0.688964
v 2.238803 1.493627 0.747931
v 2.238803 1.493627 1.212853
v 2.238803 1.434661 1.271820
v 2.238803 1.248038 1.271820
v 2.238803 1.189072 1.212853
v 2.238803 1.189072 0.747931
v 2.238803 1.248038 0.688964
v 2.329804 1.238986 0.738879
v 2.329804 1.443713 0.738879
v 2.329804 1.238986 1.221905
v 2.329804 1.443713 1.221905
v 1.812497 5.100000 0.000000
v 1.750000 5.075000 0.000000
v 2.250000 5.075000 0.000000
v 2.187503 5.100000 0.000000
v 1.750000 1.075002 4.000000
v 1.812496 1.100000 4.000000
v 2.187503 1.100000 4.000000
v 2.249999 1.075000 4.000000
v 1.000000 4.000000 0.000000
v 1.000000 2.000000 2.000000
v 1.000000 2.500000 1.500000
v 1.000000 2.400000 2.000000
v 1.000000 3.900000 0.500000
v 1.000000 0.900000 3.500000
v 1.000000 4.000000 0.400000
v 1.000000 1.500000 2.900000
v 1.000000 0.500000 3.900000
v 1.000000 2.000000 2.400000
v 1.000000 1.000000 3.400000
v 1.000000 0.250000 0.000000
v 1.000000 0.000000 0.000000
v 1.000000 0.500000 0.000000
v 1.000000 3.500000 0.900000
v 1.000000 3.000000 1.400000
v 1.000000 2.500000 1.900000
v 1.000000 1.000000 3.000000
v 1.000000 0.400000 4.000000
v 1.000000 3.000000 1.000000
v 1.000000 3.400000 1.000000
v 1.000000 2.900000 1.500000
v 1.000000 1.900000 2.500000
v 1.000000 0.000000 4.000000
v 1.000000 3.500000 0.500000
v 1.000000 1.500000 2.500000
v 1.000000 1.400000 3.000000
v 1.000000 0.500000 3.500000
vt 0.170155 0.860765
vt 0.170155 0.860765
vt 0.170155 0.860765
vt 0.170155 0.860765
vt 0.170155 0.820694
vt 0.170155 0.820694
vt 0.170155 0.824508
vt 0.170155 0.824508
vt 0.170155 0.865532
vt 0.170155 0.865532
vt 0.170155 0.865532
vt 0.170155 0.865532
vt 0.170155 0.825461
vt 0.170155 0.825461
vt 0.170155 0.829275
vt 0.170155 0.829275
vt 0.170155 0.870299
vt 0.170155 0.870299
vt 0.170155 0.870299
vt 0.170155 0.870299
vt 0.170155 0.830229
vt 0.170155 0.830229
vt 0.170155 0.834042
vt 0.170155 0.834042
vt 0.170155 0.892934
vt 0.170155 0.892934
vt 0.170155 0.893887
vt 0.170155 0.893887
vt 0.170155 0.878632
vt 0.170155 0.878632
vt 0.170155 0.879585
vt 0.170155 0.879585
vt 0.170155 0.888166
vt 0.170155 0.888166
vt 0.170155 0.889120
vt 0.170155 0.889120
vt 0.170155 0.873865
vt 0.170155 0.873865
vt 0.170155 0.874818
vt 0.170155 0.874818
vt 0.170155 0.849297
vt 0.170155 0.849297
vt 0.170155 0.853111
vt 0.170155 0.853111
vt 0.170155 0.864330
vt 0.170155 0.864330
vt 0.170155 0.865284
vt 0.170155 0.865284
vt 0.170155 0.848449
vt 0.170155 0.848449
vt 0.170155 0.819741
vt 0.170155 0.819741
vt 0.170155 0.889368
vt 0.170155 0.889368
vt 0.170155 0.889368
vt 0.170155 0.889368
vt 0.061381 0.876354
vt 0.057511 0.876354
vt 0.057511 0.884411
vt 0.061381 0.884411
vt 0.061596 0.949190
vt 0.061381 0.946911
vt 0.057511 0.946911
vt 0.057295 0.949190
vt 0.057080 0.876354
vt 0.055145 0.876354
vt 0.055145 0.884411
vt 0.057080 0.884411
vt 0.055145 0.954968
vt 0.057080 0.946911
vt 0.055145 0.946911
vt 0.061596 0.886690
vt 0.061596 0.876354
vt 0.061811 0.884411
vt 0.061811 0.876354
vt 0.057295 0.886690
vt 0.057295 0.876354
vt 0.059446 0.876354
vt 0.059446 0.884411
vt 0.059446 0.949190
vt 0.059446 0.946911
vt 0.061811 0.946911
vt 0.057295 0.954968
vt 0.200071 0.825513
vt 0.195770 0.825513
vt 0.195770 0.843366
vt 0.187536 0.880891
vt 0.192007 0.889958
vt 0.192161 0.848510
vt 0.187536 0.889785
vt 0.070770 0.876336
vt 0.070770 0.876336
vt 0.070770 0.876336
vt 0.195770 0.860017
vt 0.204371 0.896922
vt 0.195770 0.896922
vt 0.195770 0.896922
vt 0.204371 0.896922
vt 0.043821 0.876336
vt 0.043821 0.876336
vt 0.195770 0.863672
vt 0.195770 0.864939
vt 0.195770 0.861544
vt 0.195770 0.848510
vt 0.204371 0.848510
vt 0.204371 0.897709
vt 0.206849 0.840435
vt 0.142984 0.840435
vt 0.142984 0.888066
vt 0.206849 0.888066
vt 0.142984 0.824810
vt 0.136384 0.826824
vt 0.136384 0.870426
vt 0.142984 0.872441
vt 0.208695 0.820584
vt 0.207497 0.813984
vt 0.146025 0.813984
vt 0.144829 0.820584
vt 0.206849 0.903691
vt 0.213449 0.901676
vt 0.213449 0.858074
vt 0.206849 0.856060
vt 0.142984 0.907866
vt 0.144180 0.914466
vt 0.205652 0.914466
vt 0.206849 0.907866
vt 0.146025 0.798359
vt 0.138230 0.806156
vt 0.144829 0.804959
vt 0.142984 0.892241
vt 0.136384 0.891044
vt 0.144180 0.898841
vt 0.215294 0.837406
vt 0.207497 0.829609
vt 0.208695 0.836209
vt 0.206849 0.923491
vt 0.205652 0.930091
vt 0.213449 0.922294
vt 0.196776 0.832815
vt 0.186745 0.805788
vt 0.187079 0.832020
vt 0.144294 0.805037
vt 0.145490 0.798437
vt 0.137695 0.806234
vt 0.142449 0.872572
vt 0.142449 0.824941
vt 0.135849 0.826955
vt 0.135849 0.870558
vt 0.206312 0.856191
vt 0.206312 0.903822
vt 0.212914 0.901808
vt 0.212914 0.858205
vt 0.208158 0.836287
vt 0.214759 0.837484
vt 0.206962 0.829687
vt 0.143645 0.898919
vt 0.142449 0.892319
vt 0.135849 0.891122
vt 0.212914 0.922372
vt 0.206312 0.923569
vt 0.205116 0.930169
vt 0.142449 0.888197
vt 0.187079 0.839771
vt 0.177386 0.840566
vt 0.142449 0.840566
vt 0.188590 0.796818
vt 0.206962 0.814062
vt 0.188449 0.814062
vt 0.145490 0.814062
vt 0.187079 0.812643
vt 0.186745 0.786411
vt 0.177386 0.813437
vt 0.206312 0.907944
vt 0.142449 0.907944
vt 0.143645 0.914544
vt 0.205116 0.914544
vt 0.206312 0.840566
vt 0.196776 0.840566
vt 0.206312 0.888197
vt 0.144294 0.820662
vt 0.179231 0.820662
vt 0.198621 0.820662
vt 0.208158 0.820662
vt 0.206849 0.840435
vt 0.142984 0.840435
vt 0.142984 0.888066
vt 0.206849 0.888066
vt 0.142984 0.824810
vt 0.136384 0.826824
vt 0.136384 0.870426
vt 0.142984 0.872441
vt 0.208695 0.820584
vt 0.207497 0.813984
vt 0.146025 0.813984
vt 0.144829 0.820584
vt 0.206849 0.903691
vt 0.213449 0.901676
vt 0.213449 0.858074
vt 0.206849 0.856060
vt 0.142984 0.907866
vt 0.144180 0.914466
vt 0.205652 0.914466
vt 0.206849 0.907866
vt 0.146025 0.798359
vt 0.138230 0.806156
vt 0.144829 0.804959
vt 0.142984 0.892241
vt 0.136384 0.891044
vt 0.144180 0.898841
vt 0.215294 0.837406
vt 0.207497 0.829609
vt 0.208695 0.836209
vt 0.206849 0.923491
vt 0.205652 0.930091
vt 0.213449 0.922294
vt 0.206849 0.840435
vt 0.142984 0.840435
vt 0.142984 0.888066
vt 0.206849 0.888066
vt 0.142984 0.824810
vt 0.136384 0.826824
vt 0.136384 0.870426
vt 0.142984 0.872441
vt 0.208695 0.820584
vt 0.207497 0.813984
vt 0.146025 0.813984
vt 0.144829 0.820584
vt 0.206849 0.903691
vt 0.213449 0.901676
vt 0.213449 0.858074
vt 0.206849 0.856060
vt 0.142984 0.907866
vt 0.144180 0.914466
vt 0.205652 0.914466
vt 0.206849 0.907866
vt 0.146025 0.798359
vt 0.138230 0.806156
vt 0.144829 0.804959
vt 0.142984 0.892241
vt 0.136384 0.891044
vt 0.144180 0.898841
vt 0.215294 0.837406
vt 0.207497 0.829609
vt 0.208695 0.836209
vt 0.206849 0.923491
vt 0.205652 0.930091
vt 0.213449 0.922294
vt 0.206849 0.840435
vt 0.142984 0.840435
vt 0.142984 0.888066
vt 0.206849 0.888066
vt 0.142984 0.824810
vt 0.136384 0.826824
vt 0.136384 0.870426
vt 0.142984 0.872441
vt 0.208695 0.820584
vt 0.207497 0.813984
vt 0.146025 0.813984
vt 0.144829 0.820584
vt 0.206849 0.903691
vt 0.213449 0.901676
vt 0.213449 0.858074
vt 0.206849 0.856060
vt 0.142984 0.907866
vt 0.144180 0.914466
vt 0.205652 0.914466
vt 0.206849 0.907866
vt 0.146025 0.798359
vt 0.138230 0.806156
vt 0.144829 0.804959
vt 0.142984 0.892241
vt 0.136384 0.891044
vt 0.144180 0.898841
vt 0.215294 0.837406
vt 0.207497 0.829609
vt 0.208695 0.836209
vt 0.206849 0.923491
vt 0.205652 0.930091
vt 0.213449 0.922294
vt 0.206849 0.840435
vt 0.142984 0.840435
vt 0.142984 0.888066
vt 0.206849 0.888066
vt 0.142984 0.824810
vt 0.136384 0.826824
vt 0.136384 0.870426
vt 0.142984 0.872441
vt 0.208695 0.820584
vt 0.207497 0.813984
vt 0.146025 0.813984
vt 0.144829 0.820584
vt 0.206849 0.903691
vt 0.213449 0.901676
vt 0.213449 0.858074
vt 0.206849 0.856060
vt 0.142984 0.907866
vt 0.144180 0.914466
vt 0.205652 0.914466
vt 0.206849 0.907866
vt 0.146025 0.798359
vt 0.138230 0.806156
vt 0.144829 0.804959
vt 0.142984 0.892241
vt 0.136384 0.891044
vt 0.144180 0.898841
vt 0.215294 0.837406
vt 0.207497 0.829609
vt 0.208695 0.836209
vt 0.206849 0.923491
vt 0.205652 0.930091
vt 0.213449 0.922294
vt 0.206849 0.840435
vt 0.142984 0.840435
vt 0.142984 0.888066
vt 0.206849 0.888066
vt 0.142984 0.824810
vt 0.136384 0.826824
vt 0.136384 0.870426
vt 0.142984 0.872441
vt 0.208695 0.820584
vt 0.207497 0.813984
vt 0.146025 0.813984
vt 0.144829 0.820584
vt 0.206849 0.903691
vt 0.213449 0.901676
vt 0.213449 0.858074
vt 0.206849 0.856060
vt 0.142984 0.907866
vt 0.144180 0.914466
vt 0.205652 0.914466
vt 0.206849 0.907866
vt 0.146025 0.798359
vt 0.138230 0.806156
vt 0.144829 0.804959
vt 0.142984 0.892241
vt 0.136384 0.891044
vt 0.144180 0.898841
vt 0.215294 0.837406
vt 0.207497 0.829609
vt 0.208695 0.836209
vt 0.206849 0.923491
vt 0.205652 0.930091
vt 0.213449 0.922294
vt 0.187909 0.890271
vt 0.191788 0.890271
vt 0.195993 0.914774
vt 0.195770 0.914774
vt 0.204371 0.914774
vt 0.204371 0.914774
vt 0.204371 0.914774
vt 0.204371 0.914774
vt 0.195770 0.914774
vt 0.195770 0.914774
vt 0.204371 0.825513
vt 0.195993 0.859366
vt 0.204371 0.859366
vt 0.055145 0.876354
vt 0.055145 0.884411
vt 0.055145 0.954968
vt 0.187536 0.880891
vt 0.192161 0.848510
vt 0.170155 0.884353
vt 0.170155 0.884353
vt 0.170155 0.883399
vt 0.170155 0.883399
vt 0.170155 0.897701
vt 0.170155 0.898654
vt 0.170155 0.898654
vt 0.170155 0.897701
vt 0.170155 0.879834
vt 0.170155 0.879834
vt 0.170155 0.879834
vt 0.170155 0.879834
vt 0.170155 0.884601
vt 0.170155 0.884601
vt 0.170155 0.884601
vt 0.170155 0.884601
vt 0.170155 0.839763
vt 0.170155 0.843577
vt 0.170155 0.843577
vt 0.170155 0.839763
vt 0.170155 0.855998
vt 0.170155 0.855998
vt 0.170155 0.855998
vt 0.170155 0.855998
vt 0.170155 0.869098
vt 0.170155 0.870051
vt 0.170155 0.870051
vt 0.170155 0.869098
vt 0.170155 0.875066
vt 0.170155 0.875066
vt 0.170155 0.875066
vt 0.170155 0.875066
vt 0.170155 0.838810
vt 0.170155 0.838810
vt 0.170155 0.834996
vt 0.170155 0.834996
vt 0.170155 0.844530
vt 0.170155 0.848344
vt 0.170155 0.848344
vt 0.170155 0.844530
vn 0.0000 1.0000 0.0000
vn 0.0000 0.0000 1.0000
vn -0.0000 0.7071 0.7071
vn 1.0000 0.0000 0.0000
vn 0.7071 0.7071 0.0000
vn 0.8165 0.0000 0.5774
vn 0.8165 0.0000 -0.5774
vn -1.0000 -0.0000 -0.0000
vn 0.0000 0.0000 -1.0000
vn 0.5383 -0.5959 -0.5959
vn 0.4364 -0.2969 -0.8494
vn 0.4364 0.2969 -0.8494
vn 0.5383 0.5959 -0.5959
vn 0.5383 -0.5959 0.5959
vn 0.4364 -0.8494 0.2969
vn 0.4364 -0.8494 -0.2969
vn 0.5383 0.5959 0.5959
vn 0.4364 0.2969 0.8494
vn 0.4364 -0.2969 0.8494
vn 0.4364 0.8494 -0.2969
vn 0.4364 0.8494 0.2969
vn 0.7741 -0.4476 -0.4476
vn 0.4363 -0.8494 -0.2969
vn 0.4809 -0.8768 -0.0000
vn 0.7593 -0.4601 0.4601
vn -0.2722 0.6804 0.6804
vn 0.2722 0.6804 0.6804
usemtl texture
s 1
f 152/1/1 14/2/1 3/3/1 159/4/1
f 169/5/2 44/6/2 13/7/2 147/8/2
f 149/9/1 16/10/1 4/11/1 167/12/1
f 159/13/2 3/14/2 15/15/2 168/16/2
f 151/17/1 18/18/1 5/19/1 143/20/1
f 167/21/2 4/22/2 17/23/2 164/24/2
f 162/25/3 23/26/3 24/27/3 156/28/3
f 164/29/3 17/30/3 18/31/3 151/32/3
f 163/33/3 21/34/3 22/35/3 157/36/3
f 168/37/3 15/38/3 16/39/3 149/40/3
f 166/41/2 8/42/2 9/43/2 146/44/2
f 160/45/3 11/46/3 12/47/3 150/48/3
f 165/49/2 1/50/2 11/51/2 160/52/2
f 148/53/1 10/54/1 2/55/1 142/56/1
f 32/57/4 28/58/4 35/59/4 37/60/4
f 39/61/5 37/62/5 35/63/5 36/64/5
f 29/65/4 26/66/4 25/67/4 34/68/4
f 27/69/5 36/64/5 34/70/5 25/71/5
f 37/60/6 39/72/6 33/73/6 32/57/6
f 39/72/7 38/74/7 31/75/7 33/73/7
f 34/68/6 36/76/6 30/77/6 29/65/6
f 36/76/7 35/59/7 28/58/7 30/77/7
f 42/78/4 31/75/4 38/74/4 41/79/4
f 39/61/5 40/80/5 41/81/5 38/82/5
f 27/69/5 40/83/5 39/61/5 36/64/5
f 44/84/8 1/85/8 43/86/8
f 2/87/9 136/88/9 27/89/9
f 135/90/9 136/88/9 2/87/9
f 43/91/2 1/92/2 40/93/2
f 44/84/8 43/86/8 138/94/8
f 134/95/3 139/96/3 140/97/3 137/98/3
f 41/99/2 1/92/2 42/100/2
f 40/93/2 1/92/2 41/99/2
f 138/94/2 141/101/2 140/102/2 139/103/2
f 40/104/4 27/105/4 136/106/4 141/101/4
f 55/107/4 53/108/4 54/109/4 56/110/4
f 53/111/10 52/112/11 45/113/12 54/114/13
f 55/115/14 50/116/15 51/117/16 53/118/10
f 56/119/17 48/120/18 49/121/19 55/122/14
f 54/123/13 46/124/20 47/125/21 56/126/17
f 51/127/16 52/128/11 53/129/10
f 54/130/13 45/131/12 46/132/20
f 49/133/19 50/134/15 55/135/14
f 56/136/17 47/137/21 48/138/18
f 73/139/22 72/140/22 70/141/22
f 59/142/10 67/143/23 68/144/11
f 60/145/13 59/146/10 68/147/11 61/148/12
f 57/149/14 58/150/17 64/151/18 65/152/19
f 57/153/14 65/154/19 66/155/15
f 62/156/20 60/157/13 61/158/12
f 64/159/18 58/160/17 63/161/21
f 60/162/4 70/163/4 71/164/4 59/165/4
f 72/166/24 66/167/15 69/168/24
f 67/169/23 72/166/24 69/168/24
f 70/170/25 72/171/25 71/172/25
f 58/173/17 60/174/13 62/175/20 63/176/21
f 57/177/4 73/178/4 70/163/4 58/179/4
f 59/180/10 71/181/24 72/166/24 67/169/23
f 73/182/24 57/183/14 66/167/15 72/166/24
f 60/162/4 58/179/4 70/163/4
f 84/184/4 82/185/4 83/186/4 85/187/4
f 82/188/10 81/189/11 74/190/12 83/191/13
f 84/192/14 79/193/15 80/194/16 82/195/10
f 85/196/17 77/197/18 78/198/19 84/199/14
f 83/200/13 75/201/20 76/202/21 85/203/17
f 80/204/16 81/205/11 82/206/10
f 83/207/13 74/208/12 75/209/20
f 78/210/19 79/211/15 84/212/14
f 85/213/17 76/214/21 77/215/18
f 96/216/4 94/217/4 95/218/4 97/219/4
f 94/220/10 93/221/11 86/222/12 95/223/13
f 96/224/14 91/225/15 92/226/16 94/227/10
f 97/228/17 89/229/18 90/230/19 96/231/14
f 95/232/13 87/233/20 88/234/21 97/235/17
f 92/236/16 93/237/11 94/238/10
f 95/239/13 86/240/12 87/241/20
f 90/242/19 91/243/15 96/244/14
f 97/245/17 88/246/21 89/247/18
f 108/248/4 106/249/4 107/250/4 109/251/4
f 106/252/10 105/253/11 98/254/12 107/255/13
f 108/256/14 103/257/15 104/258/16 106/259/10
f 109/260/17 101/261/18 102/262/19 108/263/14
f 107/264/13 99/265/20 100/266/21 109/267/17
f 104/268/16 105/269/11 106/270/10
f 107/271/13 98/272/12 99/273/20
f 102/274/19 103/275/15 108/276/14
f 109/277/17 100/278/21 101/279/18
f 120/280/4 118/281/4 119/282/4 121/283/4
f 118/284/10 117/285/11 110/286/12 119/287/13
f 120/288/14 115/289/15 116/290/16 118/291/10
f 121/292/17 113/293/18 114/294/19 120/295/14
f 119/296/13 111/297/20 112/298/21 121/299/17
f 116/300/16 117/301/11 118/302/10
f 119/303/13 110/304/12 111/305/20
f 114/306/19 115/307/15 120/308/14
f 121/309/17 112/310/21 113/311/18
f 132/312/4 130/313/4 131/314/4 133/315/4
f 130/316/10 129/317/11 122/318/12 131/319/13
f 132/320/14 127/321/15 128/322/16 130/323/10
f 133/324/17 125/325/18 126/326/19 132/327/14
f 131/328/13 123/329/20 124/330/21 133/331/17
f 128/332/16 129/333/11 130/334/10
f 131/335/13 122/336/12 123/337/20
f 126/338/19 127/339/15 132/340/14
f 133/341/17 124/342/21 125/343/18
f 134/344/9 137/345/9 136/88/9 135/90/9
f 138/346/26 139/347/26 134/348/26 135/349/26
f 136/350/27 137/351/27 140/352/27 141/353/27
f 2/354/8 44/84/8 138/355/8 135/356/8
f 43/86/2 40/104/2 141/101/2 138/94/2
f 154/357/9 153/358/9 25/67/9 26/66/9
f 153/358/9 155/359/9 27/69/9 25/67/9
f 142/360/9 2/87/9 27/89/9 155/361/9
f 20/362/3 158/363/3 145/364/3 19/365/3
f 9/366/3 10/367/3 148/368/3 146/369/3
f 22/370/1 7/371/1 161/372/1 157/373/1
f 24/374/1 8/375/1 166/376/1 156/377/1
f 6/378/2 21/379/2 163/380/2 144/381/2
f 44/382/1 169/383/1 150/384/1 12/385/1
f 13/386/3 14/387/3 152/388/3 147/389/3
f 6/390/1 144/391/1 158/392/1 20/393/1
f 19/394/2 145/395/2 143/396/2 5/397/2
f 7/398/2 23/399/2 162/400/2 161/401/2
