# Blender v3.4.1 OBJ File: 'Dungeon_Remastered_1.1_Export.blend'
# www.blender.org
mtllib torch_lit.mtl
o torch_lit
v -0.000000 0.211064 -0.136843
v -0.052529 0.403172 -0.021758
v 0.136843 0.211064 -0.000000
v 0.000000 0.211064 0.136843
v -0.136843 0.211064 0.000000
v 0.000012 0.158564 -0.061909
v 0.061917 0.158564 -0.000005
v 0.000012 0.158564 0.061899
v -0.061892 0.158564 -0.000005
v 0.000012 -0.259774 -0.061909
v 0.061917 -0.259774 -0.000005
v 0.000012 -0.259774 0.061899
v -0.061892 -0.259774 -0.000005
v 0.000007 -0.395046 -0.000003
v 0.000007 -0.384416 -0.036354
v 0.036358 -0.384416 -0.000003
v 0.000007 -0.384416 0.036348
v -0.036343 -0.384416 -0.000003
v 0.056682 0.291172 -0.136843
v -0.056682 0.291172 -0.136843
v 0.136843 0.291172 -0.056682
v 0.136843 0.291172 0.056682
v 0.056682 0.291172 0.136843
v -0.056682 0.291172 0.136843
v -0.136843 0.291172 0.056682
v -0.136843 0.291172 -0.056682
v -0.041711 0.315172 0.000000
v 0.000000 0.315172 0.041711
v 0.041711 0.315172 0.000000
v -0.000000 0.315172 -0.041711
v -0.052529 0.403172 0.021758
v -0.021758 0.403172 0.052529
v 0.021758 0.403172 0.052529
v 0.052529 0.403172 0.021758
v 0.052529 0.403172 -0.021758
v 0.021758 0.403172 -0.052529
v -0.021758 0.403172 -0.052529
v 0.000000 0.435172 0.000000
v 0.000000 0.490999 -0.136041
v 0.096196 0.490999 -0.096196
v 0.136041 0.490999 0.000000
v 0.096196 0.490999 0.096196
v -0.000000 0.490999 0.136041
v -0.096196 0.490999 0.096196
v -0.136041 0.490999 -0.000000
v -0.096196 0.490999 -0.096196
v -0.000001 0.439994 -0.185603
v 0.131241 0.439994 -0.131241
v 0.134900 0.540319 -0.134900
v 0.000000 0.540319 -0.190777
v 0.185602 0.439994 0.000000
v 0.190777 0.540319 0.000000
v 0.131241 0.439994 0.131242
v 0.134900 0.540319 0.134900
v -0.000001 0.439994 0.185603
v -0.000000 0.540319 0.190777
v -0.131242 0.439994 0.131242
v -0.134900 0.540319 0.134900
v -0.185604 0.439994 0.000000
v -0.190777 0.540319 0.000000
v -0.131242 0.439994 -0.131241
v -0.134900 0.540319 -0.134900
v 0.000002 0.490999 -0.215756
v 0.152564 0.490999 -0.152563
v 0.215758 0.490999 -0.000001
v 0.152564 0.490999 0.152561
v 0.000002 0.490999 0.215754
v -0.152560 0.490999 0.152561
v -0.215753 0.490999 -0.000001
v -0.152560 0.490999 -0.152563
v -0.045776 0.284165 -0.194551
v 0.045775 0.284165 -0.194551
v -0.045776 0.284165 0.194551
v 0.045775 0.284165 0.194551
v 0.194551 0.284165 -0.045775
v 0.194551 0.284165 0.045775
v -0.194551 0.284165 -0.045775
v -0.194551 0.284165 0.045775
v -0.045776 0.490999 -0.146049
v -0.045776 0.490999 -0.220921
v 0.045775 0.490999 -0.220921
v 0.045775 0.490999 -0.146049
v -0.045776 0.490999 0.220921
v -0.045776 0.490999 0.146049
v 0.045775 0.490999 0.146049
v 0.045775 0.490999 0.220921
v 0.146049 0.490999 -0.045775
v 0.220921 0.490999 -0.045775
v 0.220921 0.490999 0.045775
v 0.146049 0.490999 0.045775
v -0.220921 0.490999 -0.045775
v -0.146049 0.490999 -0.045775
v -0.146049 0.490999 0.045775
v -0.220921 0.490999 0.045775
v -0.045776 0.646559 -0.211425
v -0.045776 0.619607 -0.275142
v 0.045775 0.619607 -0.275142
v 0.045775 0.646559 -0.211425
v -0.045776 0.619607 0.275142
v -0.045776 0.646559 0.211425
v 0.045775 0.646559 0.211425
v 0.045775 0.619607 0.275142
v 0.211425 0.646559 -0.045775
v 0.275142 0.619607 -0.045775
v 0.275142 0.619607 0.045775
v 0.211425 0.646559 0.045775
v -0.275142 0.619607 -0.045775
v -0.211425 0.646559 -0.045775
v -0.211425 0.646559 0.045775
v -0.275142 0.619607 0.045775
v 0.000024 0.370423 -0.094823
v 0.000024 0.565532 -0.070383
v 0.060975 0.370423 -0.072639
v 0.045266 0.565532 -0.053916
v 0.093407 0.370423 -0.016466
v 0.069338 0.565532 -0.012222
v 0.082144 0.370423 0.047412
v 0.060978 0.565532 0.035191
v 0.032456 0.370423 0.089105
v 0.024097 0.565532 0.066138
v -0.032407 0.370423 0.089105
v -0.024048 0.565532 0.066138
v -0.082095 0.370423 0.047412
v -0.060929 0.565532 0.035191
v -0.093358 0.370423 -0.016466
v -0.069289 0.565532 -0.012222
v -0.060927 0.370423 -0.072639
v -0.045217 0.565532 -0.053916
v 0.000024 0.730747 0.000000
v 0.000024 0.305441 0.000000
v 0.000024 0.461355 -0.121361
v 0.078034 0.461355 -0.092968
v 0.119541 0.461355 -0.021074
v 0.105126 0.461355 0.060680
v 0.041532 0.461355 0.114042
v -0.041483 0.461355 0.114042
v -0.105077 0.461355 0.060680
v -0.119493 0.461355 -0.021074
v -0.077985 0.461355 -0.092968
vt 0.189276 0.834024
vt 0.189276 0.851291
vt 0.202395 0.851291
vt 0.202395 0.834024
vt 0.202395 0.851291
vt 0.189276 0.851291
vt 0.189276 0.834024
vt 0.170722 0.834024
vt 0.170722 0.851291
vt 0.157606 0.851291
vt 0.157606 0.834024
vt 0.157606 0.851291
vt 0.170722 0.851291
vt 0.170722 0.834024
vt 0.189276 0.824116
vt 0.202395 0.824116
vt 0.190132 0.812801
vt 0.184198 0.812801
vt 0.157606 0.824116
vt 0.170722 0.824116
vt 0.175803 0.812801
vt 0.169873 0.812801
vt 0.170722 0.824116
vt 0.175803 0.812801
vt 0.189276 0.824116
vt 0.184198 0.812801
vt 0.920412 0.916698
vt 0.926342 0.916698
vt 0.926342 0.833299
vt 0.920412 0.833299
vt 0.926342 0.916698
vt 0.926342 0.833299
vt 0.940671 0.916698
vt 0.934737 0.916698
vt 0.934737 0.833299
vt 0.940671 0.833299
vt 0.934737 0.916698
vt 0.934737 0.833299
vt 0.920412 0.817674
vt 0.926342 0.817674
vt 0.928076 0.797276
vt 0.924589 0.797276
vt 0.926342 0.817674
vt 0.928076 0.797276
vt 0.940671 0.817674
vt 0.934737 0.817674
vt 0.933003 0.797276
vt 0.936486 0.797276
vt 0.934737 0.817674
vt 0.933003 0.797276
vt 0.930538 0.779911
vt 0.933003 0.781651
vt 0.936486 0.781651
vt 0.933003 0.781651
vt 0.928076 0.781651
vt 0.924589 0.781651
vt 0.928076 0.781651
vt 0.182830 0.897622
vt 0.186830 0.897622
vt 0.202395 0.892449
vt 0.189276 0.892449
vt 0.202395 0.892449
vt 0.182830 0.897622
vt 0.189276 0.892449
vt 0.177172 0.897622
vt 0.170722 0.892449
vt 0.173172 0.897622
vt 0.157606 0.892449
vt 0.157606 0.892449
vt 0.907348 0.828556
vt 0.902311 0.828556
vt 0.898749 0.835453
vt 0.170722 0.892449
vt 0.901580 0.762714
vt 0.905580 0.762714
vt 0.907348 0.781681
vt 0.902311 0.781681
vt 0.177172 0.897622
vt 0.891922 0.762714
vt 0.895922 0.762714
vt 0.895190 0.781681
vt 0.890150 0.781681
vt 0.895922 0.762714
vt 0.890150 0.781681
vt 0.895190 0.781681
vt 0.902311 0.781681
vt 0.907348 0.781681
vt 0.901580 0.762714
vt 0.890150 0.828556
vt 0.890150 0.828556
vt 0.895190 0.828556
vt 0.902311 0.828556
vt 0.907348 0.828556
vt 0.895190 0.828556
vt 0.192869 0.891990
vt 0.191945 0.902803
vt 0.208841 0.902803
vt 0.211069 0.891990
vt 0.208841 0.902803
vt 0.211069 0.891990
vt 0.191945 0.902803
vt 0.192869 0.891990
vt 0.168053 0.902803
vt 0.167133 0.891990
vt 0.151156 0.902803
vt 0.148932 0.891990
vt 0.151156 0.902803
vt 0.148932 0.891990
vt 0.168377 0.840021
vt 0.191621 0.840021
vt 0.188519 0.902803
vt 0.171483 0.902803
vt 0.168053 0.902803
vt 0.167133 0.891990
vt 0.200567 0.902803
vt 0.200567 0.902803
vt 0.208065 0.840021
vt 0.208065 0.840021
vt 0.188519 0.928336
vt 0.200567 0.928336
vt 0.208841 0.928336
vt 0.191945 0.928336
vt 0.188519 0.902803
vt 0.191621 0.840021
vt 0.200567 0.928336
vt 0.208841 0.928336
vt 0.171483 0.902803
vt 0.168377 0.840021
vt 0.188519 0.928336
vt 0.191945 0.928336
vt 0.159431 0.902803
vt 0.151937 0.840021
vt 0.171483 0.928336
vt 0.168053 0.928336
vt 0.159431 0.902803
vt 0.151937 0.840021
vt 0.159431 0.928336
vt 0.151156 0.928336
vt 0.159431 0.928336
vt 0.151156 0.928336
vt 0.171483 0.928336
vt 0.168053 0.928336
vt 0.168377 0.865554
vt 0.167133 0.876365
vt 0.192869 0.876365
vt 0.191621 0.865554
vt 0.151937 0.865554
vt 0.148932 0.876365
vt 0.151937 0.865554
vt 0.148932 0.876365
vt 0.168377 0.865554
vt 0.167133 0.876365
vt 0.191621 0.865554
vt 0.192869 0.876365
vt 0.208065 0.865554
vt 0.211069 0.876365
vt 0.208065 0.865554
vt 0.211069 0.876365
vt 0.170722 0.830712
vt 0.172508 0.829202
vt 0.170722 0.818590
vt 0.172508 0.849781
vt 0.187489 0.849781
vt 0.187489 0.829202
vt 0.189276 0.830712
vt 0.148159 0.849781
vt 0.148159 0.849781
vt 0.143847 0.894347
vt 0.143847 0.894347
vt 0.172508 0.829202
vt 0.170722 0.830712
vt 0.189276 0.830712
vt 0.187489 0.829202
vt 0.189276 0.818590
vt 0.187489 0.849781
vt 0.172508 0.849781
vt 0.202395 0.830712
vt 0.211838 0.829202
vt 0.216155 0.873768
vt 0.203899 0.873441
vt 0.202395 0.830712
vt 0.211838 0.829202
vt 0.202395 0.818590
vt 0.211838 0.849781
vt 0.211838 0.849781
vt 0.172508 0.894020
vt 0.187489 0.894020
vt 0.148159 0.829202
vt 0.157606 0.830712
vt 0.157606 0.830712
vt 0.148159 0.829202
vt 0.157606 0.818590
vt 0.172508 0.873441
vt 0.172508 0.873768
vt 0.225029 0.922081
vt 0.225029 0.922081
vt 0.216155 0.894347
vt 0.216155 0.894347
vt 0.134973 0.922081
vt 0.134973 0.922081
vt 0.187489 0.922081
vt 0.172508 0.922081
vt 0.172508 0.894347
vt 0.187489 0.894347
vt 0.187489 0.894020
vt 0.172508 0.894020
vt 0.203899 0.873441
vt 0.216155 0.873768
vt 0.156099 0.894020
vt 0.156099 0.894020
vt 0.172508 0.894347
vt 0.187489 0.894347
vt 0.187489 0.873441
vt 0.187489 0.873768
vt 0.203899 0.894020
vt 0.203899 0.894020
vt 0.172508 0.873768
vt 0.172508 0.873441
vt 0.156099 0.873441
vt 0.143847 0.873768
vt 0.187489 0.873768
vt 0.187489 0.873441
vt 0.143847 0.873768
vt 0.156099 0.873441
vt 0.172508 0.901502
vt 0.172508 0.907311
vt 0.214602 0.907311
vt 0.225029 0.901502
vt 0.134973 0.901502
vt 0.145400 0.907311
vt 0.187489 0.907311
vt 0.187489 0.901502
vt 0.145400 0.907311
vt 0.134973 0.901502
vt 0.187489 0.927890
vt 0.172508 0.927890
vt 0.214602 0.927890
vt 0.214602 0.927890
vt 0.172508 0.927890
vt 0.187489 0.927890
vt 0.145400 0.927890
vt 0.145400 0.927890
vt 0.187489 0.901502
vt 0.187489 0.907311
vt 0.225029 0.901502
vt 0.214602 0.907311
vt 0.172508 0.922081
vt 0.187489 0.922081
vt 0.172508 0.969049
vt 0.187489 0.969049
vt 0.187489 0.963239
vt 0.172508 0.963239
vt 0.172508 0.963239
vt 0.187489 0.963239
vt 0.187489 0.969049
vt 0.172508 0.969049
vt 0.214602 0.969049
vt 0.214602 0.969049
vt 0.225029 0.963239
vt 0.225029 0.963239
vt 0.134973 0.963239
vt 0.134973 0.963239
vt 0.145400 0.969049
vt 0.145400 0.969049
vt 0.172508 0.907311
vt 0.172508 0.901502
vt 0.931336 0.459481
vt 0.915542 0.383031
vt 0.923556 0.388257
vt 0.931336 0.388257
vt 0.907140 0.383031
vt 0.919416 0.388257
vt 0.910057 0.383031
vt 0.920855 0.342619
vt 0.922933 0.383031
vt 0.927196 0.342619
vt 0.939740 0.383031
vt 0.935478 0.388257
vt 0.952614 0.383031
vt 0.941819 0.388257
vt 0.955534 0.383031
vt 0.943258 0.342619
vt 0.931336 0.252239
vt 0.947129 0.383031
vt 0.939116 0.342619
vt 0.950856 0.480211
vt 0.931336 0.495302
vt 0.944079 0.480211
vt 0.911815 0.456801
vt 0.914171 0.480211
vt 0.931336 0.480211
vt 0.918595 0.456801
vt 0.924558 0.480211
vt 0.938115 0.456801
vt 0.948503 0.456801
vn 0.6480 -0.5899 -0.4817
vn 0.8731 -0.3593 -0.3296
vn 0.3296 -0.3593 -0.8731
vn 0.4817 -0.5899 -0.6480
vn 0.4817 -0.5899 0.6480
vn 0.3296 -0.3593 0.8731
vn 0.8731 -0.3593 0.3296
vn 0.6480 -0.5899 0.4817
vn -0.6480 -0.5900 0.4817
vn -0.8731 -0.3593 0.3296
vn -0.3296 -0.3593 0.8731
vn -0.4817 -0.5900 0.6480
vn -0.4817 -0.5900 -0.6480
vn -0.3296 -0.3593 -0.8731
vn -0.8731 -0.3593 -0.3296
vn -0.6480 -0.5900 -0.4817
vn 0.4977 -0.7103 -0.4977
vn -0.4976 -0.7104 -0.4976
vn -0.4976 -0.7105 0.4976
vn 0.4977 -0.7103 0.4977
vn -0.7071 0.0000 -0.7071
vn -0.7054 -0.0685 -0.7054
vn -0.7071 0.0000 0.7071
vn -0.7054 -0.0685 0.7054
vn 0.7071 -0.0000 0.7071
vn 0.7054 -0.0685 0.7054
vn 0.7071 -0.0000 -0.7071
vn 0.7054 -0.0685 -0.7054
vn -0.6998 -0.1435 -0.6998
vn -0.6998 -0.1434 0.6998
vn 0.6998 -0.1435 0.6998
vn 0.6998 -0.1435 -0.6998
vn -0.0000 -1.0000 -0.0000
vn 0.0000 -0.9598 -0.2807
vn 0.2807 -0.9598 0.0000
vn -0.0000 -0.9598 0.2807
vn -0.2807 -0.9598 -0.0000
vn -0.0000 0.9843 -0.1763
vn 0.1763 0.9843 0.0000
vn 0.1949 0.9770 -0.0866
vn 0.0866 0.9770 -0.1949
vn 0.1949 0.9770 0.0866
vn 0.0000 0.9843 0.1763
vn 0.0866 0.9770 0.1949
vn -0.0866 0.9770 0.1949
vn -0.1763 0.9843 0.0000
vn -0.1949 0.9770 0.0866
vn -0.1949 0.9770 -0.0866
vn 0.4531 0.8715 -0.1877
vn 0.1877 0.8715 -0.4531
vn -0.0000 1.0000 0.0000
vn -0.0866 0.9770 -0.1949
vn 0.0000 -0.3075 0.9516
vn 0.9516 -0.3075 0.0000
vn 0.8876 -0.2104 0.4098
vn 0.4098 -0.2104 0.8876
vn -0.9516 -0.3075 0.0000
vn -0.4098 -0.2104 0.8876
vn -0.8876 -0.2104 0.4098
vn 0.0000 -0.3075 -0.9516
vn -0.8876 -0.2104 -0.4098
vn -0.4098 -0.2104 -0.8876
vn 0.4098 -0.2104 -0.8876
vn 0.8876 -0.2104 -0.4098
vn -0.4531 0.8715 -0.1877
vn -0.4531 0.8715 0.1877
vn -0.1877 0.8715 0.4531
vn 0.1877 0.8715 0.4531
vn 0.4531 0.8715 0.1877
vn -0.1877 0.8715 -0.4531
vn 0.0000 0.4518 -0.8921
vn 0.6308 0.4518 -0.6308
vn 0.8921 0.4518 0.0000
vn 0.6308 0.4518 0.6308
vn -0.0000 0.4518 0.8921
vn -0.6308 0.4518 0.6308
vn -0.8921 0.4518 0.0000
vn 0.5071 -0.6969 0.5071
vn 0.0000 -0.6969 0.7172
vn -0.6308 0.4518 -0.6308
vn -0.7172 -0.6969 0.0000
vn -0.5071 -0.6969 0.5071
vn 0.0000 0.7429 0.6694
vn -0.4733 0.7429 0.4733
vn -0.5071 -0.6969 -0.5071
vn -0.6694 0.7429 -0.0000
vn -0.0000 -0.6969 -0.7172
vn -0.4733 0.7429 -0.4733
vn 0.5071 -0.6969 -0.5071
vn 0.0000 0.7429 -0.6694
vn 0.7172 -0.6969 0.0000
vn 0.4733 0.7429 -0.4733
vn 0.6694 0.7429 0.0000
vn 0.4733 0.7429 0.4733
vn -0.6087 -0.5089 -0.6087
vn 0.0000 -0.5089 -0.8608
vn -0.8609 -0.5089 0.0000
vn -0.6087 -0.5089 0.6087
vn -0.0000 -0.5089 0.8608
vn 0.6087 -0.5089 0.6087
vn 0.8608 -0.5089 0.0000
vn 0.6087 -0.5089 -0.6087
vn -0.9649 -0.2477 -0.0876
vn 0.0000 -0.6196 -0.7849
vn 0.0000 -0.3432 -0.9393
vn 0.9649 -0.2477 -0.0876
vn -0.9393 -0.3432 -0.0000
vn -0.9656 -0.2599 -0.0000
vn -0.9649 -0.2477 0.0876
vn 0.9649 -0.2477 0.0876
vn 0.0000 -0.6196 0.7849
vn 0.0000 -0.3432 0.9393
vn 0.0876 -0.2477 0.9649
vn 0.0351 0.0082 0.9993
vn 0.0481 0.0113 0.9988
vn 0.0876 -0.2477 -0.9649
vn 0.7849 -0.6196 0.0000
vn 0.9393 -0.3432 0.0000
vn 0.0000 0.0460 -0.9989
vn 0.0000 0.2172 -0.9761
vn -0.0876 -0.2477 -0.9649
vn -0.0876 -0.2477 0.9649
vn -0.7849 -0.6196 0.0000
vn -0.9988 0.0113 -0.0481
vn -0.9993 0.0082 -0.0351
vn 0.9215 -0.3885 -0.0000
vn 0.9656 -0.2599 -0.0000
vn -0.9215 -0.3885 -0.0000
vn 0.0000 -0.3885 0.9215
vn 0.0000 -0.2599 0.9656
vn -0.0000 0.0460 0.9989
vn -0.0000 0.2172 0.9761
vn 0.0481 0.0113 -0.9988
vn 0.0351 0.0082 -0.9993
vn 0.9989 0.0460 0.0000
vn 0.9761 0.2172 0.0000
vn 0.0000 -0.2599 -0.9656
vn 0.9988 0.0113 0.0481
vn 0.9993 0.0082 0.0351
vn -0.9989 0.0460 -0.0000
vn -0.9761 0.2172 -0.0000
vn -0.9993 0.0082 0.0351
vn -0.9988 0.0113 0.0481
vn -0.0481 0.0113 0.9988
vn -0.0351 0.0082 0.9993
vn 0.9993 0.0082 -0.0351
vn 0.9988 0.0113 -0.0481
vn -0.0351 0.0082 -0.9993
vn -0.0481 0.0113 -0.9988
vn -1.0000 -0.0000 0.0000
vn 0.0000 -0.0000 -1.0000
vn 1.0000 -0.0000 0.0000
vn -0.0000 -0.0000 1.0000
vn -0.0000 0.3874 0.9219
vn -0.9219 0.3874 -0.0000
vn 0.0000 0.3874 -0.9219
vn 0.9219 0.3874 0.0000
vn 0.0000 -0.3885 -0.9215
vn 0.0000 0.9210 -0.3896
vn 0.0000 0.9210 0.3896
vn 0.3896 0.9210 0.0000
vn -0.3896 0.9210 -0.0000
vn 0.0000 -0.0794 0.9968
vn -0.6408 -0.0794 0.7636
vn -0.5839 -0.4181 0.6959
vn 0.0000 -0.4181 0.9084
vn -0.9817 -0.0794 0.1731
vn -0.8946 -0.4181 0.1577
vn -0.8633 -0.0794 -0.4984
vn -0.7867 -0.4181 -0.4542
vn -0.3409 -0.0794 -0.9367
vn -0.3107 -0.4181 -0.8536
vn 0.3409 -0.0794 -0.9367
vn 0.3107 -0.4181 -0.8536
vn 0.8633 -0.0794 -0.4984
vn 0.7867 -0.4181 -0.4542
vn 0.9817 -0.0794 0.1731
vn 0.8946 -0.4181 0.1577
vn 0.6408 -0.0794 0.7636
vn 0.5839 -0.4181 0.6959
vn 0.8198 0.5541 0.1446
vn 0.5351 0.5541 0.6377
vn -0.8198 0.5541 0.1446
vn -0.7209 0.5541 -0.4162
vn 0.0000 0.5541 0.8325
vn -0.5351 0.5541 0.6377
vn -0.2847 0.5541 -0.7823
vn 0.2847 0.5541 -0.7823
vn 0.7209 0.5541 -0.4162
usemtl texture
s 1
f 1/1/1 19/2/2 21/3/3 3/4/4
f 3/4/5 22/5/6 23/6/7 4/7/8
f 4/8/9 24/9/10 25/10/11 5/11/12
f 5/11/13 26/12/14 20/13/15 1/14/16
f 1/15/1 3/16/4 7/17/17 6/18/17
f 5/19/13 1/20/16 6/21/18 9/22/18
f 4/23/9 5/19/12 9/22/19 8/24/19
f 3/16/5 4/25/8 8/26/20 7/17/20
f 9/27/21 6/28/21 10/29/22 13/30/22
f 8/31/23 9/27/23 13/30/24 12/32/24
f 7/33/25 8/34/25 12/35/26 11/36/26
f 6/37/27 7/33/27 11/36/28 10/38/28
f 13/39/22 10/40/22 15/41/29 18/42/29
f 12/43/24 13/39/24 18/42/30 17/44/30
f 11/45/26 12/46/26 17/47/31 16/48/31
f 10/49/28 11/45/28 16/48/32 15/50/32
f 14/51/33 15/52/34 16/53/35
f 14/51/33 16/53/35 17/54/36
f 14/51/33 17/55/36 18/56/37
f 14/51/33 18/56/37 15/57/34
f 30/58/38 29/59/39 21/60/40 19/61/41
f 29/59/39 22/62/42 21/60/40
f 29/59/39 28/63/43 23/64/44 22/62/42
f 28/65/43 24/66/45 23/64/44
f 28/65/43 27/67/46 25/68/47 24/66/45
f 27/67/46 26/69/48 25/68/47
f 35/70/49 36/71/50 38/72/51
f 30/58/38 19/61/41 20/73/52
f 28/74/53 29/75/54 34/76/55 33/77/56
f 27/67/46 30/78/38 20/73/52 26/69/48
f 27/79/57 28/80/53 32/81/58 31/82/59
f 30/83/60 27/79/57 2/84/61 37/85/62
f 30/83/60 37/85/62 36/86/63
f 29/75/54 35/87/64 34/76/55
f 28/74/53 33/77/56 32/81/58
f 27/79/57 31/82/59 2/84/61
f 29/75/54 30/88/60 36/86/63 35/87/64
f 2/89/65 31/90/66 38/72/51
f 32/91/67 33/92/68 38/72/51
f 34/93/69 35/70/49 38/72/51
f 36/71/50 37/94/70 38/72/51
f 37/94/70 2/89/65 38/72/51
f 31/90/66 32/91/67 38/72/51
f 33/92/68 34/93/69 38/72/51
f 63/95/71 50/96/71 49/97/72 64/98/72
f 64/98/72 49/97/72 52/99/73 65/100/73
f 65/100/73 52/99/73 54/101/74 66/102/74
f 66/102/74 54/101/74 56/103/75 67/104/75
f 67/104/75 56/103/75 58/105/76 68/106/76
f 68/106/76 58/105/76 60/107/77 69/108/77
f 61/109/78 47/110/79 39/111/79 46/112/78
f 69/108/77 60/107/77 62/113/80 70/114/80
f 70/114/80 62/113/80 50/96/71 63/95/71
f 41/115/81 40/116/82 48/117/82 51/118/81
f 39/119/83 40/120/84 49/121/84 50/122/83
f 42/123/85 41/115/81 51/118/81 53/124/85
f 40/120/84 41/125/86 52/126/86 49/121/84
f 43/127/87 42/123/85 53/124/85 55/128/87
f 41/125/86 42/129/88 54/130/88 52/126/86
f 44/131/89 43/127/87 55/128/87 57/132/89
f 42/129/88 43/133/90 56/134/90 54/130/88
f 45/135/91 44/131/89 57/132/89 59/136/91
f 43/133/90 44/137/92 58/138/92 56/134/90
f 59/136/91 61/109/78 46/112/78 45/135/91
f 44/137/92 45/139/93 60/140/93 58/138/92
f 45/139/93 46/141/94 62/142/94 60/140/93
f 46/141/94 39/119/83 50/122/83 62/142/94
f 61/143/95 70/144/95 63/145/96 47/146/96
f 59/147/97 69/148/97 70/144/95 61/143/95
f 57/149/98 68/150/98 69/148/97 59/147/97
f 55/151/99 67/152/99 68/150/98 57/149/98
f 53/153/100 66/154/100 67/152/99 55/151/99
f 51/155/101 65/156/101 66/154/100 53/153/100
f 48/157/102 64/158/102 65/156/101 51/155/101
f 47/146/96 63/145/96 64/158/102 48/157/102
f 20/159/15 71/160/103 1/14/16
f 1/161/104 71/162/105 72/163/105
f 1/1/1 72/164/106 19/165/2
f 77/166/107 78/167/107 94/168/108 91/169/108
f 4/8/9 73/170/109 24/171/10
f 23/172/7 74/173/110 4/7/8
f 4/174/111 74/175/112 73/176/112
f 22/177/6 76/178/113 89/179/114 90/180/115
f 21/181/3 75/182/116 3/4/4
f 3/183/117 75/184/118 76/185/118
f 3/4/5 76/178/113 22/177/6
f 23/6/119 24/9/119 84/186/120 85/187/120
f 5/11/13 77/188/121 26/189/14
f 25/190/11 78/191/122 5/11/12
f 5/192/123 78/167/107 77/166/107
f 71/160/103 20/159/15 79/193/124 80/194/125
f 104/195/126 105/196/126 89/197/127 88/198/127
f 110/199/128 107/200/128 91/169/108 94/168/108
f 102/201/129 99/202/129 83/203/130 86/204/130
f 20/13/131 19/2/131 82/205/132 79/206/132
f 75/182/116 21/181/3 87/207/133 88/208/134
f 25/10/135 26/12/135 92/209/136 93/210/136
f 72/163/105 71/162/105 80/211/137 81/212/137
f 74/173/110 23/172/7 85/213/138 86/214/139
f 21/3/140 22/5/140 90/215/141 87/216/141
f 24/171/10 73/170/109 83/217/142 84/218/143
f 76/185/118 75/184/118 88/198/127 89/197/127
f 78/191/122 25/190/11 93/219/144 94/220/145
f 19/165/2 72/164/106 81/221/146 82/222/147
f 73/176/112 74/175/112 86/204/130 83/203/130
f 26/189/14 77/188/121 91/223/148 92/224/149
f 99/225/150 100/226/150 84/218/143 83/217/142
f 103/227/151 104/228/151 88/208/134 87/207/133
f 107/229/151 108/230/151 92/224/149 91/223/148
f 101/231/152 102/232/152 86/214/139 85/213/138
f 109/233/153 110/234/153 94/220/145 93/219/144
f 98/235/154 95/236/154 79/206/132 82/205/132
f 106/237/155 103/238/155 87/216/141 90/215/141
f 100/239/156 101/240/156 85/187/120 84/186/120
f 108/241/157 109/242/157 93/210/136 92/209/136
f 97/243/152 98/244/152 82/222/147 81/221/146
f 105/245/153 106/246/153 90/180/115 89/179/114
f 96/247/158 97/248/158 81/212/137 80/211/137
f 95/249/159 98/250/159 97/251/159 96/252/159
f 99/253/160 102/254/160 101/255/160 100/256/160
f 103/257/161 106/258/161 105/259/161 104/260/161
f 107/261/162 110/262/162 109/263/162 108/264/162
f 80/194/125 79/193/124 95/265/150 96/266/150
f 40/116/82 39/111/79 47/110/79 48/117/82
f 131/267/163 132/268/164 114/269/165 112/270/166
f 132/268/164 133/271/167 116/272/168 114/269/165
f 133/271/167 134/273/169 118/274/170 116/272/168
f 134/273/169 135/275/171 120/276/172 118/274/170
f 135/275/171 136/277/173 122/278/174 120/276/172
f 136/277/173 137/279/175 124/280/176 122/278/174
f 137/279/175 138/281/177 126/282/178 124/280/176
f 116/272/168 129/283/33 114/269/165
f 138/281/177 139/284/179 128/285/180 126/282/178
f 139/284/179 131/267/163 112/270/166 128/285/180
f 125/286/181 130/287/51 127/288/182
f 115/289/183 130/287/51 117/290/184
f 112/270/166 129/283/33 128/285/180
f 128/285/180 129/283/33 126/282/178
f 126/282/178 129/283/33 124/280/176
f 124/280/176 129/283/33 122/278/174
f 122/278/174 129/283/33 120/276/172
f 120/276/172 129/283/33 118/274/170
f 114/269/165 129/283/33 112/270/166
f 118/274/170 129/283/33 116/272/168
f 111/291/185 130/287/51 113/292/186
f 117/290/184 130/287/51 119/293/187
f 119/293/187 130/287/51 121/294/188
f 121/294/188 130/287/51 123/295/189
f 123/295/189 130/287/51 125/286/181
f 113/292/186 130/287/51 115/289/183
f 127/288/182 130/287/51 111/291/185
f 127/288/182 111/291/185 131/267/163 139/284/179
f 125/286/181 127/288/182 139/284/179 138/281/177
f 123/295/189 125/286/181 138/281/177 137/279/175
f 121/294/188 123/295/189 137/279/175 136/277/173
f 119/293/187 121/294/188 136/277/173 135/275/171
f 117/290/184 119/293/187 135/275/171 134/273/169
f 115/289/183 117/290/184 134/273/169 133/271/167
f 113/292/186 115/289/183 133/271/167 132/268/164
f 111/291/185 113/292/186 132/268/164 131/267/163
